<svg xmlns="http://www.w3.org/2000/svg" viewBox="0 0 64 64"><path fill-rule="evenodd" d="M46.01 44.02h-6v0c-1.11 0-2-.9-2-2 0-1.11.89-2 2-2h5.9v0c4.41.02 8.02-3.52 8.09-7.93 .03-5.38-4.14-7.23-6.59-8.07v0c-.75-.26-1.27-.93-1.35-1.71l-.11-1.09v0c-.45-5.13-4.69-9.11-9.83-9.23 -4.67-.06-7.12 2.67-8.707 4.68h-.001c-.48.59-1.26.86-2 .69l0-.001c-.86-.25-1.75-.38-2.64-.38v0c-3.19.11-5.73 2.68-5.8 5.87l-.04 1.3 -.001-.001c-.02.79-.52 1.51-1.26 1.8 -2.6 1.01-5.89 2.65-5.72 7.35v-.001c.16 3.73 3.25 6.67 6.99 6.65h7v0c1.1 0 2 .89 2 2 0 1.1-.9 2-2 2h-7v0c-6.08 0-11-4.92-11.01-10.99 -.01-4.54 2.78-8.62 7.01-10.26v0c.12-5.52 4.69-9.88 10.2-9.76 .63.01 1.26.08 1.88.22v0c4.84-6.03 13.64-6.98 19.67-2.14 2.94 2.36 4.8 5.82 5.16 9.58v0c6.25 2.16 9.57 9 7.4 15.26 -1.68 4.83-6.23 8.06-11.34 8.06ZM25.02 48H30V28.01h0c0-1.11.89-2 2-2 1.1 0 2 .89 2 2v19.98h4.99v0c.56.01 1.01.47 1 1.04 -.01.2-.07.4-.19.57l-6.99 9.97H32.8c-.32.45-.94.56-1.39.25 -.1-.07-.19-.16-.26-.26l-6.99-9.98h0c-.33-.47-.23-1.11.24-1.44 .16-.13.37-.19.57-.19Z" fill="#337ea9" /></svg>